<?xml version="1.0" standalone="no"?>
<!DOCTYPE svg PUBLIC "-//W3C//DTD SVG 20010904//EN"
 "http://www.w3.org/TR/2001/REC-SVG-20010904/DTD/svg10.dtd">
<svg version="1.0" xmlns="http://www.w3.org/2000/svg"
 width="120.000000pt" height="120.000000pt" viewBox="0 0 120.000000 120.000000"
 preserveAspectRatio="xMidYMid meet">
<metadata>
Created by potrace 1.14, written by Peter Selinger 2001-2017
</metadata>
<g transform="translate(0.000000,120.000000) scale(0.100000,-0.100000)"
fill="#000000" stroke="none">
<path d="M17 1169 c-16 -28 -17 -76 -17 -600 l0 -569 195 0 194 0 28 35 c24
30 83 75 99 75 2 0 4 -9 4 -19 0 -11 -13 -28 -30 -38 -16 -9 -30 -23 -30 -31
0 -10 7 -9 28 5 44 31 100 51 227 82 120 29 245 70 298 98 16 8 33 27 39 44 6
18 17 29 29 29 30 0 22 26 -15 48 -42 25 -58 54 -81 147 -16 67 -16 70 1 82
55 36 57 39 49 71 -6 29 -25 46 -25 22 0 -6 -18 -30 -40 -54 -38 -41 -86 -68
-142 -80 -24 -6 -28 -11 -28 -40 0 -31 -5 -37 -46 -56 -31 -15 -56 -21 -78
-17 -32 5 -34 4 -42 -36 -13 -59 -40 -61 -95 -8 l-42 40 29 7 c42 10 73 33 90
66 9 17 14 31 12 32 -2 1 -42 11 -90 23 -112 28 -264 95 -311 137 -20 18 -37
36 -37 39 0 4 19 6 43 6 88 -1 96 1 107 21 l11 21 26 -21 c19 -14 29 -17 38
-10 17 14 62 3 69 -17 5 -12 9 -13 20 -4 10 8 16 9 21 1 3 -6 10 -8 15 -5 5 3
19 0 30 -7 14 -9 23 -10 28 -2 4 6 44 18 89 26 106 21 149 47 163 98 6 22 15
42 20 45 6 3 10 29 10 57 0 53 -1 54 -52 33 -15 -6 -18 -2 -18 23 0 32 14 50
25 32 3 -5 11 -10 17 -10 7 0 7 4 0 13 -7 8 -7 18 -2 27 8 12 10 11 10 -5 0
-18 1 -18 16 3 12 18 54 146 54 167 0 3 -201 5 -447 5 l-448 0 -18 -31z m405
-697 c9 -9 9 -12 -1 -12 -7 0 -11 -6 -8 -14 3 -7 0 -19 -6 -25 -8 -8 -7 -11 5
-11 21 0 32 -31 16 -42 -18 -11 -36 -10 -43 2 -4 6 -11 7 -17 4 -6 -4 -26 -8
-45 -10 -28 -2 -34 2 -39 22 -7 26 13 53 35 46 8 -3 11 0 7 6 -3 5 1 13 10 16
8 3 12 10 9 16 -3 6 1 7 9 4 9 -3 16 -1 16 5 0 14 36 9 52 -7z m2 -133 c-4 -7
3 -10 17 -9 13 1 35 2 48 1 23 -1 23 -2 8 -19 -10 -10 -17 -23 -17 -29 0 -19
-32 -24 -103 -17 -67 7 -97 22 -97 50 0 20 45 18 106 -5 28 -11 56 -16 63 -12
8 6 2 10 -18 14 -22 5 -29 11 -25 22 3 8 10 15 16 15 5 0 6 -5 2 -11z m-108
-78 c22 -6 54 -11 72 -11 37 0 42 -18 12 -45 -17 -16 -25 -17 -57 -7 -20 6
-39 9 -43 7 -11 -7 -60 42 -60 59 0 16 10 15 76 -3z"/>
<path d="M900 1025 c0 -3 13 -24 30 -46 60 -83 76 -220 35 -298 -9 -18 -12
-30 -6 -26 36 22 55 148 35 230 -9 37 -41 104 -62 128 -14 16 -32 23 -32 12z"/>
</g>
</svg>
